<svg version="1.1" preserveAspectRatio="none" xmlns="http://www.w3.org/2000/svg" width="500" height="500" viewBox="0 0 500 500"><rect width="100%" height="100%" fill="#101F37" fill-opacity="1"/><svg viewBox="64.289 187.3413 370.5244 179.2526" width="333" height="161.09901480172425" x="83.5px" y="169.4505px" xmlns="http://www.w3.org/2000/svg" xmlns:xlink="http://www.w3.org/1999/xlink" preserveAspectRatio="none"><defs></defs><style>.companyName {fill:#E9B0D6;fill-opacity:1;}.icon1 {fill:#929292;fill-opacity:1;}.icon2 {fill:#E9B0D6;fill-opacity:1;}.icon3 {fill:#E5E5E5;fill-opacity:1;}.icon3-str {stroke:#E5E5E5;stroke-opacity:1;}</style><g opacity="1" transform="rotate(0 64.289 326.5939)">
<svg width="370.5244" height="40" x="64.289" y="326.5939" version="1.1" preserveAspectRatio="none" viewBox="4.3359 -30.5273 286.57820000000004 30.9375">
  <g transform="matrix(1 0 0 1 0 0)" class="companyName"><path id="id-D6z1nYkh8" d="M4.34 0L4.34-30.53L19.86-30.53Q23.38-30.53 25.96-29.79Q28.54-29.06 30.23-27.68Q31.93-26.29 32.76-24.30Q33.59-22.30 33.59-19.79L33.59-19.79Q33.59-18.09 33.18-16.55Q32.77-15.02 31.92-13.73Q31.07-12.44 29.79-11.44Q28.50-10.43 26.76-9.77L26.76-9.77L33.40 0L25.82 0L20.08-8.67L19.90-8.67L10.53-8.69L10.53 0L4.34 0ZM10.53-14.04L20.02-14.04Q21.78-14.04 23.10-14.45Q24.41-14.86 25.30-15.61Q26.19-16.35 26.63-17.41Q27.07-18.48 27.07-19.79L27.07-19.79Q27.07-22.34 25.31-23.74Q23.55-25.14 20.02-25.14L20.02-25.14L10.53-25.14L10.53-14.04Z M41.10-7.27L41.10-7.27Q41.10-8.93 41.82-10.29Q42.55-11.66 43.99-12.65Q45.44-13.63 47.60-14.17Q49.75-14.71 52.63-14.71L52.63-14.71Q54.75-14.71 57.11-14.39Q59.46-14.08 61.96-13.44L61.96-13.44Q61.86-14.53 61.30-15.46Q60.73-16.39 59.72-17.06Q58.72-17.73 57.30-18.11Q55.89-18.48 54.09-18.48L54.09-18.48Q53.11-18.48 51.94-18.36Q50.77-18.24 49.52-18.01Q48.27-17.77 47.05-17.42Q45.83-17.07 44.77-16.58L44.77-16.58L43.02-21.33Q44.32-21.80 45.82-22.19Q47.31-22.58 48.88-22.86Q50.44-23.14 52-23.30Q53.56-23.46 55.03-23.46L55.03-23.46Q61.49-23.46 64.64-20.16Q67.78-16.86 67.78-10.04L67.78-10.04L67.78 0L62 0L62-2.17Q61.10-1.64 60.04-1.17Q58.97-0.70 57.72-0.35Q56.47 0 55.04 0.21Q53.60 0.41 52 0.41L52 0.41Q49.30 0.41 47.26-0.18Q45.22-0.76 43.86-1.80Q42.49-2.83 41.79-4.23Q41.10-5.63 41.10-7.27ZM47.20-7.46L47.20-7.46Q47.20-6.89 47.49-6.38Q47.78-5.86 48.43-5.46Q49.07-5.06 50.08-4.81Q51.08-4.57 52.51-4.57L52.51-4.57Q54.03-4.57 55.46-4.84Q56.88-5.12 58.11-5.57Q59.34-6.02 60.34-6.60Q61.34-7.19 62-7.81L62-7.81L62-8.83Q60.67-9.20 59.37-9.45Q58.07-9.71 56.89-9.85Q55.71-10 54.67-10.06Q53.62-10.12 52.84-10.12L52.84-10.12Q51.22-10.12 50.14-9.90Q49.07-9.69 48.41-9.33Q47.74-8.96 47.47-8.48Q47.20-7.99 47.20-7.46Z M78.16 0L78.16-30.53L84.35-30.53L95.45-19.39L106.54-30.53L112.73-30.53L112.73 0L106.54 0L106.54-21.95L95.45-11.27L84.35-21.95L84.35 0L78.16 0Z M121.76-13.36L121.76-17.70L139.67-17.70L139.67-13.36L121.76-13.36Z M148.12 0L148.12-23.05L153.90-23.05L153.90-21.09Q156.07-22.42 158.13-22.94Q160.19-23.46 162.16-23.46L162.16-23.46Q164.91-23.46 167.22-22.58Q169.52-21.70 171.16-19.92L171.16-19.92Q172.43-20.90 173.66-21.57Q174.89-22.25 176.13-22.67Q177.36-23.09 178.63-23.27Q179.89-23.46 181.24-23.46L181.24-23.46Q184.07-23.46 186.38-22.69Q188.68-21.91 190.31-20.39Q191.95-18.87 192.83-16.59Q193.72-14.32 193.72-11.33L193.72-11.33L193.72 0L187.96 0L187.96-10.39Q187.96-12.29 187.42-13.78Q186.89-15.27 185.92-16.30Q184.95-17.32 183.62-17.86Q182.28-18.40 180.68-18.40L180.68-18.40Q179.80-18.40 178.88-18.23Q177.96-18.07 177.09-17.71Q176.22-17.36 175.46-16.83Q174.70-16.29 174.13-15.57L174.13-15.57L174.13 0L168.37 0L168.37-10.39Q168.37-12.29 167.83-13.78Q167.30-15.27 166.33-16.30Q165.36-17.32 164.01-17.86Q162.65-18.40 161.03-18.40L161.03-18.40Q160.03-18.40 159.03-18.19Q158.02-17.99 157.09-17.62Q156.16-17.25 155.35-16.72Q154.54-16.19 153.90-15.53L153.90-15.53L153.90 0L148.12 0Z M199.79 0L214.12-30.53L220.68-30.53L235.45 0L228.95 0L226.50-5.14L208.67-5.14L206.31 0L199.79 0ZM211.04-10.23L224.06-10.23L217.46-24.10L211.04-10.23Z M241.47 0L241.47-23.05L247.25-23.05L247.25-19.73Q249.17-21.15 251.30-22.19Q253.43-23.22 255.54-23.77L255.54-23.77L257.23-18.48Q253.89-18.14 251.37-16.98Q248.84-15.82 247.25-13.71L247.25-13.71L247.25 0L241.47 0Z M273.45 0L273.45-25.10L262.18-25.10L262.18-30.53L290.91-30.53L290.91-25.10L279.64-25.10L279.64 0L273.45 0Z"/></g>
</svg>
</g><g opacity="1" transform="rotate(0 175.4463 187.3413)">
<svg width="148.2098" height="109.2526" x="175.4463" y="187.3413" version="1.1" preserveAspectRatio="none" viewBox="19.923568725585938 40.999000549316406 160.07754516601562 118.00101470947266">
  <g transform="matrix(1 0 0 1 0 0)"><g><path d="M178.67 66.709a6.638 6.638 0 0 0-5.373-2.699H73.901l-5.544-18.26A6.66 6.66 0 0 0 61.949 41H38.865a2.913 2.913 0 1 0 0 5.824h23.084c.387 0 .722.249.834.618l23.637 77.852a2.913 2.913 0 0 0 2.787 2.066h71.917c1.286 0 2.42-.843 2.79-2.075l15.799-52.655a6.636 6.636 0 0 0-1.043-5.921zm-30.078 54.827h-32.575v-14.987h32.575v14.987zm-12.8-20.811h-19.775V85.22h19.775v15.505zm-25.6 20.811h-9.535V95.458h9.535v26.078zm63.941-50.579-15.176 50.579h-4.54v-15.278a5.54 5.54 0 0 0-5.534-5.533h-7.266V84.928a5.54 5.54 0 0 0-5.534-5.533h-20.357a5.54 5.54 0 0 0-5.534 5.533v4.706h-9.826a5.54 5.54 0 0 0-5.534 5.533v26.37h-3.465L75.67 69.835h97.629c.381 0 .602.22.699.351a.859.859 0 0 1 .135.771z" data-color="1" class="icon1"></path><path d="M93.521 133.042c-7.158 0-12.981 5.822-12.981 12.979 0 7.157 5.823 12.979 12.981 12.979s12.981-5.822 12.981-12.979c0-7.157-5.823-12.979-12.981-12.979zm0 20.133c-3.946 0-7.156-3.21-7.156-7.155 0-3.945 3.21-7.155 7.156-7.155 3.946 0 7.156 3.21 7.156 7.155 0 3.946-3.21 7.155-7.156 7.155z" data-color="1" class="icon1"></path><path d="M155.37 133.042c-7.158 0-12.981 5.822-12.981 12.979 0 7.157 5.823 12.979 12.981 12.979 7.158 0 12.981-5.822 12.981-12.979.001-7.157-5.823-12.979-12.981-12.979zm0 20.133c-3.945 0-7.156-3.21-7.156-7.155 0-3.945 3.21-7.155 7.156-7.155 3.946 0 7.156 3.21 7.156 7.155.001 3.946-3.21 7.155-7.156 7.155z" data-color="1" class="icon1"></path><path d="M135.953 135.918h-23.014a2.913 2.913 0 1 0 0 5.824h23.014a2.913 2.913 0 1 0 0-5.824z" data-color="1" class="icon1"></path><path d="M62.257 87.426a2.912 2.912 0 0 0-2.913-2.912H22.913a2.913 2.913 0 1 0 0 5.824h36.432a2.911 2.911 0 0 0 2.912-2.912z" data-color="1" class="icon1"></path><path d="M67.024 107.551H40.832a2.913 2.913 0 1 0 0 5.824h26.192a2.913 2.913 0 1 0 0-5.824z" data-color="1" class="icon1"></path></g></g>
</svg>
</g></svg></svg>